<?xml version="1.0" standalone="no"?>
<!DOCTYPE svg PUBLIC "-//W3C//DTD SVG 20010904//EN"
 "http://www.w3.org/TR/2001/REC-SVG-20010904/DTD/svg10.dtd">
<svg version="1.0" xmlns="http://www.w3.org/2000/svg"
 width="128.000000pt" height="128.000000pt" viewBox="0 0 128.000000 128.000000"
 preserveAspectRatio="xMidYMid meet">
<metadata>
Created by potrace 1.14, written by Peter Selinger 2001-2017
</metadata>
<g transform="translate(0.000000,128.000000) scale(0.100000,-0.100000)"
fill="#000000" stroke="none">
<path d="M562 1240 c-45 -18 -91 -62 -112 -106 -27 -54 -29 -158 -5 -224 25
-71 100 -204 193 -345 107 -161 162 -268 162 -316 0 -108 -140 -179 -233 -117
-46 29 -64 62 -73 127 -6 49 -5 54 24 84 36 38 39 48 47 157 4 47 9 88 11 92
2 4 0 9 -5 13 -13 7 -78 -56 -118 -115 -35 -51 -63 -153 -63 -226 0 -65 36
-141 89 -185 151 -130 411 -29 411 160 0 73 -20 115 -159 331 -69 107 -145
236 -170 285 -75 152 -65 242 32 285 71 31 141 10 173 -52 25 -48 15 -172 -19
-220 -13 -20 -23 -47 -22 -60 1 -13 3 -62 4 -110 0 -51 5 -88 11 -88 21 0 94
78 115 123 21 45 22 57 17 205 -7 202 -23 242 -119 291 -45 23 -147 28 -191
11z"/>
<path d="M602 1097 c-85 -48 -68 -160 50 -342 l33 -50 6 75 c4 53 14 91 33
130 15 30 28 69 29 87 3 82 -81 138 -151 100z"/>
<path d="M605 472 c-1 -54 -7 -80 -33 -136 -44 -94 -35 -148 33 -180 46 -22
87 -14 120 26 46 55 29 140 -60 282 -26 42 -50 76 -54 76 -3 0 -6 -30 -6 -68z"/>
</g>
</svg>
